<svg width="20" height="18" viewBox="0 0 20 18" fill="none" xmlns="http://www.w3.org/2000/svg">
<path fill-rule="evenodd" clip-rule="evenodd" d="M12.1687 0.357965L19.6557 8.1358C20.1151 8.61308 20.1151 9.38692 19.6557 9.8642L12.1687 17.642C11.7092 18.1193 10.9643 18.1193 10.5049 17.642C10.0454 17.1647 10.0454 16.3909 10.5049 15.9136L13.5382 12.7624C14.4555 11.8096 13.7802 10.2222 12.4576 10.2222H1.22241C0.547427 10.2222 0.000244141 9.67498 0.000244141 9C0.000244141 8.32502 0.547428 7.77783 1.22241 7.77783H12.4576C13.7802 7.77783 14.4555 6.19045 13.5382 5.23757L10.5049 2.08637C10.0454 1.60909 10.0454 0.835251 10.5049 0.357965C10.9643 -0.119322 11.7092 -0.119322 12.1687 0.357965Z" fill="white"/>
</svg>
