<svg width="42" height="44" viewBox="0 0 42 44" fill="none" xmlns="http://www.w3.org/2000/svg">
<path d="M9.90025 12.4027C9.90025 6.40354 14.8475 1.49999 21.0002 1.49999C27.153 1.49999 32.1002 6.40354 32.1002 12.4027C32.1002 18.4019 27.153 23.3055 21.0002 23.3055C14.8475 23.3055 9.90025 18.4019 9.90025 12.4027ZM39.9343 39.4146C40.3038 40.8891 39.0687 42.5 37.0002 42.5L5.00024 42.5C2.93183 42.5 1.69668 40.8891 2.06618 39.4146C2.90868 36.0526 4.67012 32.9457 7.20326 30.4522C8.06969 29.5994 9.00949 28.8349 10.0083 28.1648L11.0553 27.6187C12.2263 27.0079 13.7827 27.1273 15.3678 27.809C17.0953 28.552 19.0013 28.963 21.0002 28.963C22.9992 28.963 24.9052 28.552 26.6327 27.809C28.2178 27.1273 29.7742 27.0079 30.9452 27.6187L31.9922 28.1648C32.991 28.8349 33.9308 29.5994 34.7972 30.4522C37.3304 32.9457 39.0918 36.0526 39.9343 39.4146Z" stroke="#7A59BE" stroke-width="3"/>
</svg>
