<svg width="43" height="40" viewBox="0 0 43 40" fill="none" xmlns="http://www.w3.org/2000/svg">
<path fill-rule="evenodd" clip-rule="evenodd" d="M1.25088 1.37866C2.06172 0.505444 3.17753 0 4.35739 0H38.6431C39.823 0 40.9388 0.505443 41.7496 1.37866C42.5581 2.24933 43.0002 3.41487 43.0002 4.61539V10.7692C43.0002 12.6971 43.0002 14.9952 43.0002 16.9231V23.0769C43.0002 25.0048 43.0002 27.3029 43.0002 29.2308V35.3846C43.0002 36.5851 42.5581 37.7507 41.7496 38.6213C40.9388 39.4946 39.823 40 38.6431 40H4.35739C3.17753 40 2.06172 39.4946 1.25088 38.6213C0.442398 37.7507 0.000244141 36.5851 0.000244141 35.3846V29.2308C0.000244141 27.3029 0.000244141 25.0048 0.000244141 23.0769V16.9231C0.000244141 14.9952 0.000244141 12.6971 0.000244141 10.7692V4.61539C0.000244141 3.41487 0.442397 2.24933 1.25088 1.37866ZM4.35739 15.3846C4.02172 15.3846 3.68408 15.5275 3.42329 15.8084C3.16013 16.0918 3.00024 16.4915 3.00024 16.9231V23.0769C3.00024 23.5085 3.16013 23.9082 3.42329 24.1916C3.68408 24.4725 4.02172 24.6154 4.35739 24.6154H38.6431C38.9788 24.6154 39.3164 24.4725 39.5772 24.1916C39.8404 23.9082 40.0002 23.5085 40.0002 23.0769V16.9231C40.0002 16.4915 39.8404 16.0918 39.5772 15.8084C39.3164 15.5275 38.9788 15.3846 38.6431 15.3846H4.35739ZM38.6431 12.3077C38.9788 12.3077 39.3164 12.1648 39.5772 11.8839C39.8404 11.6005 40.0002 11.2008 40.0002 10.7692V4.61539C40.0002 4.1838 39.8404 3.78408 39.5772 3.50068C39.3164 3.21983 38.9788 3.07692 38.6431 3.07692H4.35739C4.02172 3.07692 3.68408 3.21983 3.42329 3.50068C3.16013 3.78408 3.00024 4.1838 3.00024 4.61539V10.7692C3.00024 11.2008 3.16013 11.6005 3.42329 11.8839C3.68408 12.1648 4.02172 12.3077 4.35739 12.3077H38.6431ZM38.6431 27.6923H4.35739C4.02172 27.6923 3.68408 27.8352 3.42329 28.1161C3.16013 28.3995 3.00024 28.7992 3.00024 29.2308V35.3846C3.00024 35.8162 3.16013 36.2159 3.42329 36.4993C3.68408 36.7802 4.02172 36.9231 4.35739 36.9231H38.6431C38.9788 36.9231 39.3164 36.7802 39.5772 36.4993C39.8404 36.2159 40.0002 35.8162 40.0002 35.3846V29.2308C40.0002 28.7992 39.8404 28.3995 39.5772 28.1161C39.3164 27.8352 38.9788 27.6923 38.6431 27.6923ZM14.3574 7.69231C14.3574 8.54198 13.6686 9.23077 12.8189 9.23077H7.32442C6.47475 9.23077 5.78596 8.54198 5.78596 7.69231C5.78596 6.84264 6.47475 6.15385 7.32442 6.15385H12.8189C13.6686 6.15385 14.3574 6.84264 14.3574 7.69231ZM14.3574 20C14.3574 20.8497 13.6686 21.5385 12.8189 21.5385H7.32442C6.47475 21.5385 5.78596 20.8497 5.78596 20C5.78596 19.1503 6.47475 18.4615 7.32442 18.4615H12.8189C13.6686 18.4615 14.3574 19.1503 14.3574 20ZM14.3574 32.3077C14.3574 33.1574 13.6686 33.8462 12.8189 33.8462H7.32442C6.47475 33.8462 5.78596 33.1574 5.78596 32.3077C5.78596 31.458 6.47475 30.7692 7.32442 30.7692H12.8189C13.6686 30.7692 14.3574 31.458 14.3574 32.3077Z" fill="#7A59BE"/>
</svg>
