<svg width="44" height="38" viewBox="0 0 44 38" fill="none" xmlns="http://www.w3.org/2000/svg">
<path fill-rule="evenodd" clip-rule="evenodd" d="M11.6377 15.4994L24.9905 23.3708L35.987 3.92377L26.5518 6.50507C25.7606 6.72154 24.9473 6.24211 24.7353 5.43424C24.5233 4.62638 24.9929 3.79599 25.7841 3.57952L38.6779 0.0519768C39.4692 -0.16449 40.2824 0.314933 40.4944 1.1228L43.9493 14.2878C44.1613 15.0956 43.6918 15.926 42.9006 16.1425C42.1093 16.359 41.2961 15.8795 41.084 15.0717L38.5559 5.43815L26.0762 27.5081L12.7235 19.6368L2.76815 37.2426C2.35858 37.9669 1.45148 38.215 0.742085 37.7969C0.0326875 37.3787 -0.210369 36.4525 0.199201 35.7282L11.6377 15.4994Z" fill="#7A59BE"/>
</svg>
