<svg width="69" height="42" viewBox="0 0 69 42" fill="none" xmlns="http://www.w3.org/2000/svg">
<path d="M27.8043 25.2335L34.5 42L41.1957 25.2335L34.5 1.52302L27.8043 25.2335Z" fill="#AB89F3"/>
<path d="M13.6571 29.1585L20.6047 34.7754L26.4689 31.9572L25.0153 28.3173L24.208 26.2957L24.6861 24.6025L24.7263 24.4605L25.684 21.0688L26.2559 19.0438L26.8071 17.0921L28.3971 11.4616L25.6702 16.0601L24.2776 18.4086L20.6047 24.6025L15.4457 21.2195L13.6571 20.0466L0 0L10.1832 31.4365L13.6571 29.1585Z" fill="#AB89F3"/>
<path d="M48.3953 34.7754L55.3429 29.1585L58.8168 31.4365L69 0L55.3429 20.0466L53.5543 21.2195L48.3953 24.6025C47.3805 22.9125 46.013 20.6307 44.7053 18.441C44.2221 17.632 43.7471 16.8355 43.301 16.0862C41.9452 13.8083 40.8571 11.9655 40.6214 11.5271L42.1929 17.0921L42.7441 19.0438L43.316 21.0688L44.2737 24.4605L44.3139 24.6025L44.792 26.2957L43.9847 28.3173L42.5311 31.9572L48.3953 34.7754Z" fill="#AB89F3"/>
</svg>
