<svg width="50" height="50" viewBox="0 0 50 50" fill="none" xmlns="http://www.w3.org/2000/svg">
<path d="M19.7687 0.00625026L21.2875 0H28.7125L30.2333 0.00625026L32.1375 0.0270845L33.0396 0.0416684L33.9104 0.064586L34.75 0.0937539L35.5583 0.127089L36.3375 0.17084L37.0875 0.222926L37.8062 0.285429L38.5 0.354181C42.125 0.762532 44.6104 1.63757 46.4854 3.51265C48.3604 5.38772 49.2354 7.87116 49.6437 11.4984L49.7146 12.1922L49.775 12.913L49.8271 13.6631L49.8687 14.4402L49.9208 15.6652L49.9458 16.5194L49.9729 17.8612L49.9917 19.7675L50 21.8092L49.9979 28.7116L49.9917 30.2325L49.9708 32.1368L49.9562 33.0389L49.9333 33.9097L49.9042 34.7494L49.8708 35.5577L49.8271 36.3369L49.775 37.087L49.7125 37.8057L49.6437 38.4995C49.2354 42.1247 48.3604 44.6102 46.4854 46.4853C44.6104 48.3603 42.1271 49.2354 38.5 49.6437L37.8062 49.7146L37.0854 49.775L36.3354 49.8271L35.5583 49.8687L34.3333 49.9208L33.4792 49.9458L32.1375 49.9729L30.2312 49.9917L28.1896 50L21.2875 49.9979L19.7667 49.9917L17.8625 49.9708L16.9604 49.9562L16.0896 49.9333L15.25 49.9042L14.4417 49.8708L13.6625 49.8271L12.9125 49.775L12.1937 49.7125L11.5 49.6437C7.875 49.2354 5.38958 48.3603 3.51458 46.4853C1.63958 44.6102 0.764583 42.1268 0.35625 38.4995L0.285417 37.8057L0.225 37.0849L0.172917 36.3348L0.13125 35.5577L0.0791667 34.3327L0.0541667 33.4785L0.0270833 32.1368L0.00833333 30.2304L0 28.1887L0.00208333 21.2863L0.00833333 19.7654L0.0291667 17.8612L0.04375 16.959L0.0666667 16.0882L0.0958333 15.2486L0.129167 14.4402L0.172917 13.661L0.225 12.911L0.2875 12.1922L0.35625 11.4984C0.764583 7.87324 1.63958 5.38772 3.51458 3.51265C5.38958 1.63757 7.87292 0.762532 11.5 0.354181L12.1937 0.283345L12.9146 0.222926L13.6646 0.17084L14.4417 0.129172L15.6667 0.0770865L16.5208 0.0520855L17.8625 0.025001L19.7687 0.00625026ZM14.1458 15.2069H8.4375C8.70833 28.2074 15.2083 36.0203 26.6042 36.0203H27.25V28.5824C31.4375 28.9991 34.6042 32.0618 35.875 36.0203H41.7917C40.1667 30.1033 35.8958 26.8324 33.2292 25.5823C35.8958 24.0406 39.6458 20.2904 40.5417 15.2069H35.1667C34 19.3321 30.5417 23.0822 27.25 23.4364V15.2069H21.875V29.6241C18.5417 28.7908 14.3333 24.7489 14.1458 15.2069Z" fill="#7A59BE"/>
</svg>
