<svg width="24" height="26" viewBox="0 0 24 26" fill="none" xmlns="http://www.w3.org/2000/svg">
<path d="M5.8 7.32889C5.8 3.81673 8.59249 0.999993 12 0.999993C15.4075 0.999993 18.2 3.81673 18.2 7.32889C18.2 10.841 15.4075 13.6578 12 13.6578C8.59249 13.6578 5.8 10.841 5.8 7.32889ZM22.0869 21.5265C22.4606 22.4023 22.2619 23.2148 21.6949 23.8584C21.1045 24.5287 20.1117 25 19 25L5 25C3.8883 25 2.89552 24.5287 2.30509 23.8584C1.73807 23.2148 1.53937 22.4023 1.91306 21.5265C2.45959 20.2455 3.2408 19.0686 4.22807 18.0636C4.71451 17.5685 5.2415 17.1247 5.80096 16.7356C6.78613 16.2291 8.07757 16.3684 9.48419 16.8285C10.2781 17.0882 11.1239 17.2281 12 17.2281C12.8761 17.2281 13.7219 17.0882 14.5158 16.8285C15.9224 16.3684 17.2139 16.2291 18.199 16.7356C18.7585 17.1247 19.2855 17.5685 19.7719 18.0636C20.7592 19.0686 21.5404 20.2455 22.0869 21.5265Z" stroke="white" stroke-width="2"/>
</svg>
