<svg width="18" height="18" viewBox="0 0 18 18" fill="none" xmlns="http://www.w3.org/2000/svg">
<g opacity="0.5">
<path fill-rule="evenodd" clip-rule="evenodd" d="M4.19515 6.97405C5.10111 6.06847 6.32962 5.55975 7.61057 5.55975C8.89152 5.55975 10.12 6.06847 11.026 6.97405C11.3775 7.32545 11.3776 7.89529 11.0263 8.24683C10.6749 8.59837 10.105 8.59849 9.75348 8.24709C9.18506 7.67891 8.41426 7.35973 7.61057 7.35973C6.80689 7.35973 6.0361 7.6789 5.46769 8.24706M2.68763 11.0262C2.68759 11.0263 2.68766 11.0262 2.68763 11.0262L5.46769 8.24706L2.68763 11.0262ZM2.68763 11.0262C2.11927 11.5946 1.79998 12.3655 1.79998 13.1693C1.79998 13.9732 2.11931 14.7442 2.68773 15.3126C3.25615 15.881 4.02709 16.2003 4.83096 16.2003C5.63482 16.2003 6.40576 15.881 6.97418 15.3126L8.36376 13.923C8.71523 13.5715 9.28507 13.5715 9.63654 13.923C9.98801 14.2745 9.98801 14.8443 9.63654 15.1958L8.24696 16.5854C7.34098 17.4913 6.1122 18.0003 4.83096 18.0003C3.54971 18.0003 2.32093 17.4913 1.41495 16.5854C0.508974 15.6794 0 14.4506 0 13.1693C0 11.8881 0.508974 10.6593 1.41495 9.75335L4.19515 6.97405" fill="#7A59BE"/>
<path d="M5.46769 8.24706L4.19515 6.97405L2.68763 11.0262L5.46769 8.24706Z" fill="#7A59BE"/>
<path d="M9.7537 1.41495L10.3901 3.32415L11.0265 2.68773L9.7537 1.41495Z" fill="#7A59BE"/>
<path d="M13.1697 0C11.8885 0 10.6597 0.508974 9.7537 1.41495L11.0265 2.68773C11.5949 2.11931 12.3658 1.79998 13.1697 1.79998C13.9736 1.79998 14.7445 2.11931 15.3129 2.68773C15.8813 3.25615 16.2007 4.02709 16.2007 4.83096C16.2007 5.63477 15.8814 6.40567 15.313 6.97408L12.533 9.75324C11.9646 10.3214 11.1938 10.6406 10.3901 10.6406C9.58639 10.6406 8.8156 10.3214 8.24718 9.75321C7.89564 9.40182 7.3258 9.40194 6.97441 9.75348C6.62301 10.105 6.62313 10.6749 6.97467 11.0263C7.88063 11.9318 9.10914 12.4406 10.3901 12.4406C11.671 12.4406 12.8996 11.9318 13.8055 11.0262L16.5857 8.24696C17.4917 7.34098 18.0007 6.11221 18.0007 4.83096C18.0007 3.54971 17.4917 2.32093 16.5857 1.41495C15.6797 0.508974 14.451 0 13.1697 0Z" fill="#7A59BE"/>
<path d="M8.36412 4.07731C8.71559 4.42878 9.28543 4.42878 9.6369 4.07731L10.3901 3.32415L9.7537 1.41495L8.36412 2.80454C8.01265 3.156 8.01265 3.72584 8.36412 4.07731Z" fill="#7A59BE"/>
</g>
</svg>
