<svg width="30" height="23" viewBox="0 0 30 23" fill="none" xmlns="http://www.w3.org/2000/svg">
<path d="M25.3961 2.11418C23.4837 1.25171 21.4337 0.614224 19.29 0.251734C19.271 0.248069 19.2512 0.250431 19.2335 0.258493C19.2158 0.266556 19.2011 0.279919 19.1913 0.296733C18.9288 0.75797 18.6363 1.3592 18.4313 1.83419C16.1578 1.49449 13.8463 1.49449 11.5728 1.83419C11.3444 1.30778 11.087 0.794499 10.8015 0.296733C10.7919 0.279712 10.7772 0.266046 10.7596 0.257559C10.7419 0.249073 10.7221 0.246168 10.7028 0.249234C8.56035 0.611724 6.51041 1.24921 4.59672 2.11293C4.58025 2.11984 4.5663 2.13161 4.55672 2.14668C0.666832 7.86526 -0.399388 13.4426 0.124347 18.9499C0.125805 18.9634 0.129991 18.9765 0.136653 18.9883C0.143315 19.0001 0.152311 19.0105 0.163096 19.0187C2.43352 20.6717 4.96588 21.9309 7.65413 22.7436C7.67287 22.7494 7.69291 22.7493 7.71164 22.7435C7.73038 22.7377 7.74692 22.7264 7.75913 22.7111C8.3376 21.9374 8.85022 21.1167 9.29158 20.2574C9.29771 20.2457 9.30124 20.2327 9.30194 20.2195C9.30263 20.2063 9.30048 20.193 9.29562 20.1807C9.29076 20.1684 9.28331 20.1572 9.27377 20.1481C9.26423 20.1389 9.25283 20.1318 9.24033 20.1274C8.43286 19.8233 7.65049 19.4564 6.9004 19.0299C6.88692 19.0222 6.87557 19.0113 6.86735 18.9982C6.85913 18.985 6.85431 18.97 6.85332 18.9545C6.85233 18.939 6.8552 18.9235 6.86167 18.9094C6.86814 18.8953 6.87801 18.883 6.8904 18.8737C7.0479 18.7574 7.20539 18.6362 7.35539 18.515C7.36889 18.5041 7.38515 18.4971 7.40237 18.4949C7.41958 18.4927 7.43707 18.4953 7.45289 18.5025C12.3615 20.7074 17.6776 20.7074 22.5287 18.5025C22.5446 18.4949 22.5622 18.4919 22.5797 18.4939C22.5971 18.4959 22.6137 18.5028 22.6274 18.5137C22.7774 18.6362 22.9337 18.7574 23.0924 18.8737C23.1049 18.8829 23.115 18.895 23.1217 18.9089C23.1283 18.9229 23.1314 18.9384 23.1307 18.9538C23.13 18.9693 23.1254 18.9844 23.1174 18.9977C23.1094 19.0109 23.0983 19.022 23.0849 19.0299C22.3375 19.4599 21.56 19.8237 20.7437 20.1262C20.7312 20.1307 20.7198 20.1379 20.7103 20.1472C20.7007 20.1565 20.6933 20.1678 20.6884 20.1802C20.6836 20.1926 20.6814 20.2059 20.6821 20.2192C20.6828 20.2326 20.6864 20.2456 20.6925 20.2574C21.1425 21.1161 21.6575 21.9336 22.2237 22.7098C22.2355 22.7258 22.2519 22.7377 22.2707 22.7439C22.2895 22.7502 22.3097 22.7505 22.3287 22.7448C25.0216 21.9344 27.5581 20.6746 29.831 19.0187C29.8421 19.0109 29.8514 19.0009 29.8583 18.9893C29.8652 18.9776 29.8695 18.9646 29.871 18.9512C30.496 12.5839 28.8235 7.05154 25.4349 2.14918C25.4266 2.13325 25.4128 2.12083 25.3961 2.11418ZM10.0253 15.5963C8.54785 15.5963 7.32914 14.2601 7.32914 12.6214C7.32914 10.9814 8.52411 9.64646 10.0253 9.64646C11.5378 9.64646 12.7452 10.9927 12.7215 12.6214C12.7215 14.2613 11.5265 15.5963 10.0253 15.5963ZM19.9938 15.5963C18.5151 15.5963 17.2976 14.2601 17.2976 12.6214C17.2976 10.9814 18.4913 9.64646 19.9938 9.64646C21.5062 9.64646 22.7137 10.9927 22.6899 12.6214C22.6899 14.2613 21.5075 15.5963 19.9938 15.5963Z" fill="#7A59BE" fill-opacity="0.75"/>
</svg>
