<svg width="30" height="30" viewBox="0 0 30 30" fill="none" xmlns="http://www.w3.org/2000/svg">
<path fill-rule="evenodd" clip-rule="evenodd" d="M2.05025 2.05025C0 4.1005 0 7.40034 0 14V16C0 22.5997 0 25.8995 2.05025 27.9497C4.1005 30 7.40034 30 14 30H16C22.5997 30 25.8995 30 27.9497 27.9497C30 25.8995 30 22.5997 30 16V14C30 7.40034 30 4.1005 27.9497 2.05025C25.8995 0 22.5997 0 16 0H14C7.40034 0 4.1005 0 2.05025 2.05025ZM18.432 6.00279C20.147 6.27666 21.7869 6.75829 23.3169 7.40992C23.3302 7.41494 23.3412 7.42432 23.3479 7.43636C26.0588 11.1402 27.3968 15.3201 26.8968 20.1307C26.8956 20.1409 26.8921 20.1507 26.8866 20.1595C26.8811 20.1683 26.8737 20.1759 26.8648 20.1817C25.0464 21.4328 23.0173 22.3846 20.863 22.9969C20.8478 23.0012 20.8316 23.001 20.8165 22.9963C20.8015 22.9915 20.7884 22.9825 20.779 22.9705C20.326 22.384 19.914 21.7664 19.554 21.1176C19.5491 21.1087 19.5463 21.0988 19.5457 21.0888C19.5451 21.0787 19.5469 21.0687 19.5507 21.0593C19.5546 21.0499 19.5606 21.0414 19.5682 21.0344C19.5758 21.0273 19.585 21.0219 19.595 21.0185C20.248 20.7899 20.87 20.5151 21.4679 20.1902C21.4786 20.1843 21.4875 20.1759 21.4939 20.1658C21.5003 20.1558 21.504 20.1444 21.5046 20.1327C21.5052 20.121 21.5027 20.1094 21.4973 20.0988C21.492 20.0883 21.484 20.0791 21.4739 20.0722C21.347 19.9844 21.222 19.8928 21.102 19.8002C21.091 19.7919 21.0777 19.7868 21.0637 19.7853C21.0498 19.7838 21.0356 19.786 21.023 19.7917C17.1421 21.4576 12.8892 21.4576 8.96231 19.7917C8.94966 19.7863 8.93566 19.7843 8.92189 19.786C8.90812 19.7877 8.89511 19.7929 8.88431 19.8012C8.76431 19.8928 8.63832 19.9844 8.51232 20.0722C8.50241 20.0793 8.49451 20.0885 8.48934 20.0992C8.48416 20.1098 8.48186 20.1216 8.48266 20.1333C8.48345 20.145 8.4873 20.1563 8.49388 20.1662C8.50045 20.1762 8.50954 20.1844 8.52032 20.1902C9.12039 20.5124 9.74629 20.7897 10.3923 21.0194C10.4023 21.0227 10.4114 21.0281 10.419 21.035C10.4266 21.042 10.4326 21.0504 10.4365 21.0597C10.4404 21.069 10.4421 21.079 10.4415 21.089C10.441 21.099 10.4382 21.1087 10.4333 21.1176C10.0802 21.7668 9.67008 22.3869 9.2073 22.9714C9.19754 22.983 9.1843 22.9916 9.16932 22.996C9.15433 23.0004 9.1383 23.0004 9.1233 22.996C6.9727 22.382 4.94682 21.4306 3.13048 20.1817C3.12185 20.1755 3.11465 20.1677 3.10932 20.1588C3.10399 20.1499 3.10064 20.14 3.09948 20.1298C2.68049 15.9689 3.53347 11.755 6.64538 7.43447C6.65304 7.42309 6.6642 7.41419 6.67737 7.40897C8.20833 6.7564 9.84828 6.27477 11.5622 6.0009C11.5777 5.99858 11.5936 6.00077 11.6077 6.00719C11.6218 6.0136 11.6335 6.02392 11.6412 6.03678C11.8696 6.41286 12.0756 6.80066 12.2582 7.19837C14.0771 6.94173 15.9262 6.94173 17.7451 7.19837C17.909 6.83951 18.143 6.38526 18.353 6.03678C18.3608 6.02408 18.3726 6.01398 18.3868 6.00789C18.401 6.0018 18.4168 6.00002 18.432 6.00279ZM11.0202 17.596C9.83828 17.596 8.86331 16.5865 8.86331 15.3484C8.86331 14.1094 9.81928 13.1008 11.0202 13.1008C12.2302 13.1008 13.1962 14.1179 13.1772 15.3484C13.1772 16.5874 12.2212 17.596 11.0202 17.596ZM18.995 17.596C17.8121 17.596 16.8381 16.5865 16.8381 15.3484C16.8381 14.1094 17.7931 13.1008 18.995 13.1008C20.205 13.1008 21.171 14.1179 21.152 15.3484C21.152 16.5874 20.206 17.596 18.995 17.596Z" fill="#5E4392"/>
</svg>
