<svg width="30" height="30" viewBox="0 0 30 30" fill="none" xmlns="http://www.w3.org/2000/svg">
<path d="M0.616875 19.3744C1.55773 22.4502 3.46122 25.1427 6.04713 27.0556C8.63303 28.9684 11.7647 30.0005 14.9813 30C23.2763 30 30 23.2838 30 15C30 6.71625 23.2763 1.12459e-06 14.9831 1.12459e-06C11.1755 -0.00147184 7.50962 1.44405 4.72773 4.04386C1.94585 6.64368 0.25587 10.2035 0 14.0025L0.005625 14.0138L8.07563 17.3306C8.80346 16.8488 9.6655 16.6104 10.5375 16.65L14.2125 11.3175L14.2106 11.2425C14.2121 9.73006 14.8135 8.27996 15.8827 7.21032C16.952 6.14069 18.4019 5.53886 19.9144 5.53688C21.4268 5.53886 22.8767 6.14069 23.946 7.21032C25.0153 8.27996 25.6166 9.73006 25.6181 11.2425C25.6175 12.0025 25.4653 12.7547 25.1704 13.4552C24.8755 14.1556 24.4438 14.7901 23.9006 15.3217C23.3574 15.8532 22.7136 16.271 22.0069 16.5506C21.3002 16.8302 20.5448 16.966 19.785 16.95L14.5275 20.7C14.5453 21.3946 14.3892 22.0827 14.0734 22.7016C13.7575 23.3205 13.292 23.8507 12.719 24.2438C12.1461 24.637 11.4839 24.8806 10.7928 24.9527C10.1017 25.0247 9.40357 24.9228 8.76188 24.6563C8.14598 24.3996 7.60092 23.9985 7.17274 23.4867C6.74457 22.975 6.44586 22.3678 6.30188 21.7162L0.61875 19.3744H0.616875Z" fill="#7A59BE" fill-opacity="0.75"/>
<path d="M9.1275 23.7806C9.90869 24.0788 10.7753 24.061 11.5436 23.7309C12.3118 23.4008 12.9213 22.7845 13.2427 22.0126C13.5642 21.2407 13.5723 20.3739 13.2654 19.5961C12.9585 18.8183 12.3607 18.1907 11.5988 17.8463C10.8433 17.531 9.99569 17.5176 9.23063 17.8088L11.1488 18.6038C11.4356 18.7232 11.6961 18.8979 11.9155 19.118C12.1348 19.3381 12.3086 19.5993 12.427 19.8866C12.5454 20.1738 12.606 20.4816 12.6055 20.7924C12.6049 21.1031 12.5432 21.4106 12.4237 21.6975C12.3043 21.9844 12.1296 22.2449 11.9095 22.4642C11.6894 22.6835 11.4282 22.8573 11.1409 22.9757C10.8537 23.0941 10.5459 23.1548 10.2351 23.1542C9.92443 23.1537 9.61686 23.0919 9.33 22.9725L7.47375 22.2038C7.81155 22.915 8.40064 23.476 9.1275 23.7788V23.7806ZM16.1138 11.2425C16.1142 12.2507 16.5147 13.2175 17.2272 13.9307C17.9398 14.644 18.9062 15.0454 19.9144 15.0469C20.9226 15.0454 21.889 14.644 22.6015 13.9307C23.314 13.2175 23.7145 12.2507 23.715 11.2425C23.7135 10.235 23.3126 9.26913 22.6002 8.5567C21.8877 7.84426 20.9219 7.44336 19.9144 7.44188C18.9068 7.44336 17.941 7.84426 17.2286 8.5567C16.5161 9.26913 16.1152 10.235 16.1138 11.2425ZM19.92 8.37938C20.2953 8.37962 20.6668 8.45378 21.0134 8.59761C21.36 8.74144 21.6748 8.95213 21.94 9.21764C22.2052 9.48316 22.4155 9.79831 22.5588 10.1451C22.7022 10.4919 22.7759 10.8635 22.7756 11.2388C22.7754 11.614 22.7012 11.9855 22.5574 12.3321C22.4136 12.6787 22.2029 12.9936 21.9374 13.2588C21.6718 13.5239 21.3567 13.7342 21.0099 13.8776C20.6631 14.021 20.2915 14.0946 19.9163 14.0944C19.1584 14.0939 18.4318 13.7923 17.8962 13.2561C17.3607 12.7199 17.0601 11.9929 17.0606 11.235C17.0611 10.4771 17.3627 9.75053 17.8989 9.21499C18.4351 8.67946 19.1621 8.37888 19.92 8.37938Z" fill="#7A59BE" fill-opacity="0.75"/>
</svg>
