<svg width="19" height="22" viewBox="0 0 19 22" fill="none" xmlns="http://www.w3.org/2000/svg">
<path fill-rule="evenodd" clip-rule="evenodd" d="M3.84066 13.4362C3.31037 13.8026 2.81166 14.2222 2.35256 14.6916C1.44613 15.6185 0.729625 16.7032 0.22867 17.8826C-0.684167 20.0318 1.27762 22 3.60366 22L15.3963 22C17.7224 22 19.6842 20.0318 18.7713 17.8826C18.2704 16.7032 17.5539 15.6185 16.6474 14.6916C16.1883 14.2222 15.6896 13.8026 15.1593 13.4362C14.6033 13.1349 13.9915 13.0284 13.3673 13.0445C12.6936 13.062 12.0053 13.2224 11.3573 13.4353C10.7719 13.6276 10.1478 13.7315 9.5 13.7315C8.85216 13.7315 8.22805 13.6276 7.64272 13.4353C6.99465 13.2224 6.30644 13.062 5.63267 13.0445C5.00846 13.0284 4.39665 13.1349 3.84066 13.4362ZM6.1678 11.3837C6.73244 11.764 7.36292 12.0505 8.03801 12.2214C8.50625 12.3399 8.99594 12.4027 9.5 12.4027C10.0041 12.4027 10.4938 12.3399 10.962 12.2214C11.6371 12.0505 12.2676 11.764 12.8322 11.3837C14.4784 10.2748 15.5648 8.3678 15.5648 6.20137C15.5648 2.77645 12.8495 0 9.5 0C6.1505 0 3.4352 2.77645 3.4352 6.20137C3.4352 8.3678 4.52164 10.2748 6.1678 11.3837ZM14.2913 14.8912C14.7009 15.1819 15.0875 15.5114 15.4457 15.8776C16.2025 16.6514 16.802 17.5585 17.2218 18.5468C17.3949 18.9544 17.3224 19.3 17.0343 19.6286C16.7067 20.0021 16.1062 20.3077 15.3963 20.3077L3.60366 20.3077C2.89385 20.3077 2.29328 20.0021 1.96571 19.6286C1.67757 19.3 1.60507 18.9544 1.77819 18.5468C2.19796 17.5585 2.79753 16.6514 3.55432 15.8776C3.91249 15.5114 4.29912 15.1819 4.70867 14.8912C5.22388 14.6499 6.01171 14.6799 7.11897 15.0438C7.87106 15.2909 8.67184 15.4238 9.5 15.4238C10.3282 15.4238 11.1289 15.2909 11.881 15.0438C12.9883 14.6799 13.7761 14.6499 14.2913 14.8912ZM9.5 1.69231C7.10897 1.69231 5.11986 3.68265 5.11986 6.20137C5.11986 8.72009 7.10897 10.7104 9.5 10.7104C11.891 10.7104 13.8801 8.7201 13.8801 6.20137C13.8801 3.68265 11.891 1.69231 9.5 1.69231Z" fill="#7A59BE"/>
</svg>
